# AST/ASF file generated using VICON BodyLanguage
# -----------------------------------------------
:version 1.10
:name VICON
:units
  mass 1.0
  length 0.45
  angle deg
:documentation
   .ast/.asf automatically generated from VICON data using
   VICON BodyBuilder and BodyLanguage model FoxedUp or BRILLIANT.MOD
:root
   order TX TY TZ RX RY RZ
   axis XYZ
   position 0 0 0  
   orientation 0 0 0 
:bonedata
  begin
     id 1 
     name lhipjoint
     direction 0.70531 -0.63749 0.310071 
     length 2.59589 
     axis 0 0 0  XYZ
  end
  begin
     id 2 
     name lfemur
     direction 0.34202 -0.939693 0  
     length 6.19797  
     axis 0 0 20  XYZ
    dof rx ry rz
    limits (-160.0 20.0)
           (-70.0 70.0)
           (-60.0 70.0)
  end
  begin
     id 3 
     name ltibia
     direction 0.34202 -0.939693 0   
     length 7.80054   
     axis 0 0 20   XYZ
    dof rx
    limits (-10.0 170.0)
  end
  begin
     id 4 
     name lfoot
     direction 0.0828572 -0.227648 0.970212   
     length 1.88124   
     axis -90 7.62852e-016 20   XYZ
    dof rx rz
    limits (-45.0 90.0)
           (-70.0 20.0)
  end
  begin
     id 5 
     name ltoes
     direction 1.53544e-011 -4.219e-011 1   
     length 0.948015   
     axis -90 7.62852e-016 20   XYZ
    dof rx
    limits (-90.0 20.0)
  end
  begin
     id 6 
     name rhipjoint
     direction -0.730062 -0.614543 0.29891   
     length 2.69282  
     axis 0 0 0  XYZ 
  end
  begin
     id 7 
     name rfemur
     direction -0.34202 -0.939693 0   
     length 5.86298   
     axis 0 0 -20   XYZ
    dof rx ry rz
    limits (-160.0 20.0)
           (-70.0 70.0)
           (-70.0 60.0)
  end
  begin
     id 8 
     name rtibia
     direction -0.34202 -0.939693 0   
     length 7.72374   
     axis 0 0 -20   XYZ
    dof rx
    limits (-10.0 170.0)
 end
 begin
     id 9 
     name rfoot
     direction -0.0967421 -0.265797 0.959163   
     length 2.02368  
     axis -90 -7.62852e-016 -20   XYZ
    dof rx rz
    limits (-45.0 90.0)
           (-20.0 70.0)
  end
  begin
     id 10 
     name rtoes
     direction -1.53524e-011 -4.21768e-011 1   
     length 1.01373   
     axis -90 -7.62852e-016 -20   XYZ
    dof rx
    limits (-90.0 20.0)
  end
  begin
     id 11 
     name lowerback
     direction 0.00561702 0.992801 -0.119643   
     length 2.02816   
     axis 0 0 0   XYZ
    dof rx ry rz
    limits (-20.0 45.0)
           (-30.0 30.0)
           (-30.0 30.0)
  end
  begin
     id 12 
     name upperback
     direction 0.00155544 0.995735 -0.0922509   
     length 2.02265   
     axis 0 0 0   XYZ
    dof rx ry rz
    limits (-20.0 45.0)
           (-30.0 30.0)
           (-30.0 30.0)
  end
  begin
     id 13 
     name thorax
     direction -0.000937535 0.999317 -0.0369292   
     length 2.04823   
     axis 0 0 0   XYZ
    dof rx ry rz
    limits (-20.0 45.0)
           (-30.0 30.0)
           (-30.0 30.0)
  end
  begin
     id 14 
     name lowerneck
     direction -0.0813151 0.981659 0.172436   
     length 1.8875   
     axis 0 0 0   XYZ
    dof rx ry rz
    limits (-20.0 45.0)
           (-30.0 30.0)
           (-30.0 30.0)
  end
  begin
     id 15 
     name upperneck
     direction 0.119359 0.955672 -0.269157   
     length 1.92801   
     axis 0 0 0   XYZ
    dof rx ry rz
    limits (-20.0 45.0)
           (-30.0 30.0)
           (-30.0 30.0)
  end
  begin
     id 16
     name head
     direction 0.0421007 0.992672 -0.113268  
     length 1.95809  
     axis 0 0 0   XYZ
    dof rx ry rz
    limits (-20.0 45.0)
           (-30.0 30.0)
           (-30.0 30.0)
  end
  begin
     id 17 
     name lclavicle
     direction 0.944093 0.32865 -0.0260136  
     length 3.84992  
     axis 0 0 0   XYZ
    dof ry rz
    limits (-20.0 10.0)
           (0.0 20.0)
  end
  begin
     id 18 
     name lhumerus
     direction 1 -4.48979e-011 -1.27712e-029   
     length 5.53593   
     axis 180 -30 -90   XYZ
    dof rx ry rz
    limits (-60.0 90.0)
           (-90.0 90.0)
           (-90.0 90.0)
  end
  begin
     id 19
     name lradius
     direction 1 -4.48966e-011 1.00051e-028   
     length 3.13345   
     axis 180 -30 -90   XYZ
    dof rx
    limits (-10.0 170.0)
  end
  begin
     id 20
     name lwrist
     direction 1 -4.4896e-011 2.56952e-028   
     length 1.56673   
     axis -5.12785e-016 90 90   XYZ
    dof ry
    limits (-180.0 0.0)
 end
  begin
     id 21 
     name lhand
     direction 1 -4.48934e-011 5.13905e-028   
     length 0.713374   
     axis -3.27915e-016 90 90   XYZ
    dof rx rz
    limits (-90.0 90.0)
           (-45.0 45.0)
  end
  begin
     id 22 
     name lfingers
     direction 1 -4.48973e-011 1.02781e-027   
     length 0.575141   
     axis -6.5583e-016 90 90   XYZ
    dof rx
    limits (0.0 90.0)
  end
  begin
     id 23
     name lthumb
     direction 0.707107 -6.34883e-011 0.707107   
     length 0.82579   
     axis -90 45 2.85299e-015   XYZ
    dof rx rz
    limits (-45.0 45.0)
           (-45.0 45.0)
  end
  begin
     id 24 
     name rclavicle
     direction -0.936895 0.34884 0.0232243   
     length 3.53304  
     axis 0 0 0   XYZ 
    dof ry rz
    limits (-10.0 20.0)
           (-20.0 0.0)
  end
  begin
     id 25 
     name rhumerus
     direction -1 -4.48965e-011 1.05514e-027  
     length 5.4685   
     axis 180 30 90   XYZ
    dof rx ry rz
    limits (-90.0 60.0)
           (-90.0 90.0)
           (-90.0 90.0)
  end
  begin
     id 26 
     name rradius
     direction -1 -4.48964e-011 -1.1079e-027   
     length 3.22411   
     axis 180 30 90   XYZ
    dof rx
    limits (-10.0 170.0)
  end
  begin
     id 27 
     name rwrist
     direction -1 -4.48973e-011 2.56952e-028   
     length 1.61206   
     axis -5.12785e-016 -90 -90   XYZ
    dof ry
    limits (-180.0 0.0)
  end
  begin
     id 28
     name rhand
     direction -1 -4.48957e-011 5.13905e-028   
     length 0.74528   
     axis -3.27915e-016 -90 -90   XYZ
    dof rx rz
    limits (-90.0 90.0)
           (-45.0 45.0)
  end
  begin
     id 29
     name rfingers
     direction -1 -4.4901e-011 1.02781e-027   
     length 0.600864   
     axis -6.5583e-016 -90 -90   XYZ
    dof rx
    limits (0.0 90.0)
  end
  begin
     id 30
     name rthumb
     direction -0.707107 -6.34972e-011 0.707107   
     length 0.862724   
     axis -90 -45 -2.85299e-015   XYZ
    dof rx rz
    limits (-45.0 45.0)
           (-45.0 45.0)
  end
:hierarchy
  begin
    root lhipjoint rhipjoint lowerback
    lhipjoint lfemur
    lfemur ltibia
    ltibia lfoot
    lfoot ltoes
    rhipjoint rfemur
    rfemur rtibia
    rtibia rfoot
    rfoot rtoes
    lowerback upperback
    upperback thorax
    thorax lowerneck lclavicle rclavicle
    lowerneck upperneck
    upperneck head
    lclavicle lhumerus
    lhumerus lradius
    lradius lwrist
    lwrist lhand lthumb
    lhand lfingers
    rclavicle rhumerus
    rhumerus rradius
    rradius rwrist
    rwrist rhand rthumb
    rhand rfingers
  end

#!OML:ASF G:\Work\Work\Patient Classification 1\Liu\Session 1\Liu.ASF
:FULLY-SPECIFIED
:DEGREES
714
root 12.2821 16.0556 35.9128 -521.057 65.7498 -169.953
lowerback -0.753192 0.563593 -1.00743
upperback 1.3632 0.76116 2.50782
thorax 1.77374 0.362077 3.15965
lowerneck -22.3867 8.79061 3.0341
upperneck 26.4358 12.9585 -3.23183
head 12.9771 5.7028 0.592977
rclavicle 2.84014e-014 6.36111e-015
rhumerus -58.6566 19.5922 -96.5824
rradius 96.7512
rwrist -13.8327
rhand -24.59 33.4819
rfingers 7.12502
rthumb 1.9075 3.51067
lclavicle 2.84014e-014 6.36111e-015
lhumerus -47.7224 -31.8993 98.7079
lradius 80.9462
lwrist 30.0143
lhand -20.7545 41.1737
lfingers 7.12502
lthumb 5.61137 71.0794
rfemur -34.4912 -6.04235 21.3171
rtibia 38.6705
rfoot -16.3457 -3.25755
rtoes -54.0018
lfemur -6.78524 1.79556 -32.6476
ltibia 36.622
lfoot 1.34686 -5.25483
ltoes 5.85671
715
root 12.5029 16.0525 35.7787 -521.934 64.9713 -170.293
lowerback -0.760398 0.420356 -0.457065
upperback 1.58868 0.560655 2.24164
thorax 2.02884 0.267456 2.57254
lowerneck -23.6607 9.27647 4.38513
upperneck 27.3241 13.2944 -3.50948
head 13.7473 5.87357 0.434623
rclavicle -2.20154e-014 1.56543e-014
rhumerus -58.9401 19.502 -96.4559
rradius 96.9071
rwrist -14.0686
rhand -23.6882 33.8466
rfingers 7.12502
rthumb 2.77848 3.885
lclavicle -2.20154e-014 1.56543e-014
lhumerus -47.627 -32.5687 98.3276
lradius 82.4154
lwrist 29.9909
lhand -19.784 40.1737
lfingers 7.12502
lthumb 6.54832 70.0524
rfemur -33.7881 -6.33459 20.9111
rtibia 36.9214
rfoot -18.5617 -3.55599
rtoes -53.3533
lfemur -4.73904 1.53449 -32.7752
ltibia 35.6315
lfoot 2.33981 -3.95093
ltoes 5.2327
716
root 12.7157 16.0485 35.6483 -523.114 63.7742 -171.121
lowerback -0.907223 -0.00300131 0.175874
upperback 1.83686 -0.0168461 1.85772
thorax 2.39296 -0.010881 1.80827
lowerneck -24.043 9.52733 4.88853
upperneck 27.3443 13.3955 -3.41445
head 13.8696 5.96108 0.433069
rclavicle -8.76827e-015 4.88762e-014
rhumerus -59.1082 19.8631 -96.6979
rradius 97.035
rwrist -13.845
rhand -23.6613 33.6913
rfingers 7.12502
rthumb 2.80446 3.72997
lclavicle -8.76827e-015 4.88762e-014
lhumerus -47.1554 -32.7977 97.2807
lradius 84.0185
lwrist 31.9638
lhand -19.2041 38.0406
lfingers 7.12502
lthumb 7.1081 67.9013
rfemur -33.3169 -7.12703 20.5405
rtibia 35.5672
rfoot -20.2837 -3.82954
rtoes -53.1172
lfemur -3.03368 0.891795 -32.9773
ltibia 35.0141
lfoot 3.79157 -2.80302
ltoes 7.0972
717
root 12.9143 16.038 35.532 -523.875 62.3202 -171.747
lowerback -0.833209 -0.645607 -0.144411
upperback 1.79358 -0.86879 2.4003
thorax 2.34715 -0.443673 2.52258
lowerneck -23.805 9.49594 4.3201
upperneck 27.2747 13.7512 -3.86944
head 13.8057 6.00926 0.404634
rclavicle -3.25013e-014 -2.31584e-014
rhumerus -59.6836 21.3719 -95.8561
rradius 97.4106
rwrist -14.229
rhand -22.9792 33.4777
rfingers 7.12502
rthumb 3.46323 3.5261
lclavicle -3.25013e-014 -2.31584e-014
lhumerus -46.5691 -31.5967 97.1007
lradius 85.7094
lwrist 35.9306
lhand -20.8419 36.7218
lfingers 7.12502
lthumb 5.52696 66.6297
rfemur -33.081 -7.87945 20.2933
rtibia 34.5963
rfoot -21.4183 -4.08687
rtoes -53.3602
lfemur -1.80742 0.457347 -32.9053
ltibia 34.6704
lfoot 5.53227 -2.07671
ltoes 7.87654
718
root 13.0998 16.0247 35.4378 -524.143 60.9408 -172.046
lowerback -0.256019 -1.06728 -1.87775
upperback 1.37388 -1.39136 3.95474
thorax 1.70223 -0.723449 5.116
lowerneck -23.7215 9.29266 3.1278
upperneck 27.647 14.3431 -4.75076
head 13.9673 6.03385 0.379208
rclavicle -2.23633e-014 2.18663e-014
rhumerus -60.7438 23.251 -93.6398
rradius 98.0315
rwrist -14.572
rhand -22.5734 33.5582
rfingers 7.12502
rthumb 3.85506 3.61333
lclavicle -2.23633e-014 2.18663e-014
lhumerus -47.4271 -31.2801 100.233
lradius 86.6429
lwrist 33.1587
lhand -29.8326 37.2465
lfingers 7.12502
lthumb -3.1558 67.2029
rfemur -33.0589 -8.06355 20.1219
rtibia 33.9331
rfoot -22.178 -4.17639
rtoes -53.6545
lfemur -1.14543 0.455163 -32.5314
ltibia 34.6871
lfoot 6.43313 -1.40805
ltoes 4.31805
